<?xml version="1.0" encoding="UTF-8" standalone="no"?>
<svg xmlns="http://www.w3.org/2000/svg" xmlns:xlink="http://www.w3.org/1999/xlink" contentScriptType="application/ecmascript" contentStyleType="text/css" height="550px" preserveAspectRatio="none" style="width:1145px;height:550px;" version="1.1" viewBox="0 0 1145 550" width="1145px" zoomAndPan="magnify"><defs><filter height="300%" id="fbphr1af3p629" width="300%" x="-1" y="-1"><feGaussianBlur result="blurOut" stdDeviation="2.0"/><feColorMatrix in="blurOut" result="blurOut2" type="matrix" values="0 0 0 0 0 0 0 0 0 0 0 0 0 0 0 0 0 0 .4 0"/><feOffset dx="4.0" dy="4.0" in="blurOut2" result="blurOut3"/><feBlend in="SourceGraphic" in2="blurOut3" mode="normal"/></filter></defs><g><!--cluster Phases d'écriture,\nde relecture,\nde mise en page--><path d="M518,31 C518,28 520,26 523,26 C526,26 528,28 528,31 C528,28 530,26 533,26 C536,26 538,28 538,31 C538,28 540,26 543,26 C546,26 548,28 548,31 C548,28 550,26 553,26 C556,26 558,28 558,31 C558,28 560,26 563,26 C566,26 568,28 568,31 C568,28 570,26 573,26 C576,26 578,28 578,31 C578,28 580,26 583,26 C586,26 588,28 588,31 C588,28 590,26 593,26 C596,26 598,28 598,31 C598,28 600,26 603,26 C606,26 608,28 608,31 C608,28 610,26 613,26 C616,26 618,28 618,31 C618,28 620,26 623,26 C626,26 628,28 628,31 C628,28 630,26 633,26 C636,26 638,28 638,31 C638,28 640,26 643,26 C646,26 648,28 648,31 C648,28 650,26 653,26 C656,26 658,28 658,31 C658,28 660,26 663,26 C666,26 668,28 668,31 C668,28 670,26 673,26 C676,26 678,28 678,31 C678,28 680,26 683,26 C686,26 688,28 688,31 C688,28 690,26 693,26 C696,26 698,28 698,31 C698,28 700,26 703,26 C706,26 708,28 708,31 C708,28 710,26 713,26 C716,26 718,28 718,31 C718,28 720,26 723,26 C726,26 728,28 728,31 C728,28 730,26 733,26 C736,26 738,28 738,31 C738,28 740,26 743,26 C746,26 748,28 748,31 C748,28 750,26 753,26 C756,26 758,28 758,31 C758,28 760,26 763,26 C766,26 768,28 768,31 C768,28 770,26 773,26 C776,26 778,28 778,31 C778,28 780,26 783,26 C786,26 788,28 788,31 C788,28 790,26 793,26 C796,26 798,28 798,31 C798,28 800,26 803,26 C806,26 808,28 808,31 C808,28 810,26 813,26 C816,26 818,28 818,31 C818,28 820,26 823,26 C826,26 828,28 828,31 C828,28 830,26 833,26 C836,26 838,28 838,31 C838,28 840,26 843,26 C846,26 848,28 848,31 C848,28 850,26 853,26 C856,26 858,28 858,31 C858,28 860,26 863,26 C866,26 868,28 868,31 C868,28 870,26 873,26 C876,26 878,28 878,31 C878,28 880,26 883,26 C886,26 888,28 888,31 C888,28 890,26 893,26 C896,26 898,28 898,31 C898,28 900,26 903,26 C906,26 908,28 908,31 C908,28 910,26 913,26 C916,26 918,28 918,31 C918,28 920,26 923,26 C926,26 928,28 928,31 C928,28 930,26 933,26 C936,26 938,28 938,31 C938,28 940,26 943,26 C946,26 948,28 948,31 C948,28 950,26 953,26 C956,26 958,28 958,31 C958,28 960,26 963,26 C966,26 968,28 968,31 C968,28 970,26 973,26 C976,26 978,28 978,31 C978,28 980,26 983,26 C986,26 988,28 988,31 C988,28 990,26 993,26 C996,26 998,28 998,31 C998,28 1000,26 1003,26 C1006,26 1008,28 1008,31 C1008,28 1010,26 1013,26 C1016,26 1018,28 1018,31 C1018,28 1020,26 1023,26 C1026,26 1028,28 1028,31 C1028,28 1030,26 1033,26 C1036,26 1038,28 1038,31 C1038,28 1040,26 1043,26 C1046,26 1048,28 1048,31 C1048,28 1050,26 1053,26 C1056,26 1058,28 1058,31 C1058,28 1060,26 1063,26 C1066,26 1068,28 1068,31 C1068,28 1070,26 1073,26 C1076,26 1078,28 1078,31 C1078,28 1080,26 1083,26 C1086,26 1088,28 1088,31 C1088,28 1090,26 1093,26 C1096,26 1098,28 1098,31 C1098,28 1100,26 1103,26 C1106,26 1108,28 1108,31 C1108,28 1110,26 1113,26 C1116,26 1118,28 1118,31 C1118,28 1120,26 1123,26 C1126,26 1128,28 1128,31 C1131,31 1133,33 1133,36 C1133,39 1131,41 1128,41 C1131,41 1133,43 1133,46 C1133,49 1131,51 1128,51 C1131,51 1133,53 1133,56 C1133,59 1131,61 1128,61 C1131,61 1133,63 1133,66 C1133,69 1131,71 1128,71 C1131,71 1133,73 1133,76 C1133,79 1131,81 1128,81 C1131,81 1133,83 1133,86 C1133,89 1131,91 1128,91 C1131,91 1133,93 1133,96 C1133,99 1131,101 1128,101 C1131,101 1133,103 1133,106 C1133,109 1131,111 1128,111 C1131,111 1133,113 1133,116 C1133,119 1131,121 1128,121 C1131,121 1133,123 1133,126 C1133,129 1131,131 1128,131 C1131,131 1133,133 1133,136 C1133,139 1131,141 1128,141 C1131,141 1133,143 1133,146 C1133,149 1131,151 1128,151 C1131,151 1133,153 1133,156 C1133,159 1131,161 1128,161 C1131,161 1133,163 1133,166 C1133,169 1131,171 1128,171 C1131,171 1133,173 1133,176 C1133,179 1131,181 1128,181 C1131,181 1133,183 1133,186 C1133,189 1131,191 1128,191 C1131,191 1133,193 1133,196 C1133,199 1131,201 1128,201 C1131,201 1133,203 1133,206 C1133,209 1131,211 1128,211 C1131,211 1133,213 1133,216 C1133,219 1131,221 1128,221 C1131,221 1133,223 1133,226 C1133,229 1131,231 1128,231 C1131,231 1133,233 1133,236 C1133,239 1131,241 1128,241 C1131,241 1133,243 1133,246 C1133,249 1131,251 1128,251 C1131,251 1133,253 1133,256 C1133,259 1131,261 1128,261 C1131,261 1133,263 1133,266 C1133,269 1131,271 1128,271 C1131,271 1133,273 1133,276 C1133,279 1131,281 1128,281 C1131,281 1133,283 1133,286 C1133,289 1131,291 1128,291 C1131,291 1133,293 1133,296 C1133,299 1131,301 1128,301 C1131,301 1133,303 1133,306 C1133,309 1131,311 1128,311 C1131,311 1133,313 1133,316 C1133,319 1131,321 1128,321 C1131,321 1133,323 1133,326 C1133,329 1131,331 1128,331 C1131,331 1133,333 1133,336 C1133,339 1131,341 1128,341 C1131,341 1133,343 1133,346 C1133,349 1131,351 1128,351 C1131,351 1133,353 1133,356 C1133,359 1131,361 1128,361 C1131,361 1133,363 1133,366 C1133,369 1131,371 1128,371 C1131,371 1133,373 1133,376 C1133,379 1131,381 1128,381 C1131,381 1133,383 1133,386 C1133,389 1131,391 1128,391 C1131,391 1133,393 1133,396 C1133,399 1131,401 1128,401 C1131,401 1133,403 1133,406 C1133,409 1131,411 1128,411 C1131,411 1133,413 1133,416 C1133,419 1131,421 1128,421 C1131,421 1133,423 1133,426 C1133,429 1131,431 1128,431 C1131,431 1133,433 1133,436 C1133,439 1131,441 1128,441 C1131,441 1133,443 1133,446 C1133,449 1131,451 1128,451 C1131,451 1133,453 1133,456 C1133,459 1131,461 1128,461 C1131,461 1133,463 1133,466 C1133,469 1131,471 1128,471 C1128,474 1125,476 1123,476 C1120,476 1118,474 1118,471 C1118,474 1115,476 1113,476 C1110,476 1108,474 1108,471 C1108,474 1105,476 1103,476 C1100,476 1098,474 1098,471 C1098,474 1095,476 1093,476 C1090,476 1088,474 1088,471 C1088,474 1085,476 1083,476 C1080,476 1078,474 1078,471 C1078,474 1075,476 1073,476 C1070,476 1068,474 1068,471 C1068,474 1065,476 1063,476 C1060,476 1058,474 1058,471 C1058,474 1055,476 1053,476 C1050,476 1048,474 1048,471 C1048,474 1045,476 1043,476 C1040,476 1038,474 1038,471 C1038,474 1035,476 1033,476 C1030,476 1028,474 1028,471 C1028,474 1025,476 1023,476 C1020,476 1018,474 1018,471 C1018,474 1015,476 1013,476 C1010,476 1008,474 1008,471 C1008,474 1005,476 1003,476 C1000,476 998,474 998,471 C998,474 995,476 993,476 C990,476 988,474 988,471 C988,474 985,476 983,476 C980,476 978,474 978,471 C978,474 975,476 973,476 C970,476 968,474 968,471 C968,474 965,476 963,476 C960,476 958,474 958,471 C958,474 955,476 953,476 C950,476 948,474 948,471 C948,474 945,476 943,476 C940,476 938,474 938,471 C938,474 935,476 933,476 C930,476 928,474 928,471 C928,474 925,476 923,476 C920,476 918,474 918,471 C918,474 915,476 913,476 C910,476 908,474 908,471 C908,474 905,476 903,476 C900,476 898,474 898,471 C898,474 895,476 893,476 C890,476 888,474 888,471 C888,474 885,476 883,476 C880,476 878,474 878,471 C878,474 875,476 873,476 C870,476 868,474 868,471 C868,474 865,476 863,476 C860,476 858,474 858,471 C858,474 855,476 853,476 C850,476 848,474 848,471 C848,474 845,476 843,476 C840,476 838,474 838,471 C838,474 835,476 833,476 C830,476 828,474 828,471 C828,474 825,476 823,476 C820,476 818,474 818,471 C818,474 815,476 813,476 C810,476 808,474 808,471 C808,474 805,476 803,476 C800,476 798,474 798,471 C798,474 795,476 793,476 C790,476 788,474 788,471 C788,474 785,476 783,476 C780,476 778,474 778,471 C778,474 775,476 773,476 C770,476 768,474 768,471 C768,474 765,476 763,476 C760,476 758,474 758,471 C758,474 755,476 753,476 C750,476 748,474 748,471 C748,474 745,476 743,476 C740,476 738,474 738,471 C738,474 735,476 733,476 C730,476 728,474 728,471 C728,474 725,476 723,476 C720,476 718,474 718,471 C718,474 715,476 713,476 C710,476 708,474 708,471 C708,474 705,476 703,476 C700,476 698,474 698,471 C698,474 695,476 693,476 C690,476 688,474 688,471 C688,474 685,476 683,476 C680,476 678,474 678,471 C678,474 675,476 673,476 C670,476 668,474 668,471 C668,474 665,476 663,476 C660,476 658,474 658,471 C658,474 655,476 653,476 C650,476 648,474 648,471 C648,474 645,476 643,476 C640,476 638,474 638,471 C638,474 635,476 633,476 C630,476 628,474 628,471 C628,474 625,476 623,476 C620,476 618,474 618,471 C618,474 615,476 613,476 C610,476 608,474 608,471 C608,474 605,476 603,476 C600,476 598,474 598,471 C598,474 595,476 593,476 C590,476 588,474 588,471 C588,474 585,476 583,476 C580,476 578,474 578,471 C578,474 575,476 573,476 C570,476 568,474 568,471 C568,474 565,476 563,476 C560,476 558,474 558,471 C558,474 555,476 553,476 C550,476 548,474 548,471 C548,474 545,476 543,476 C540,476 538,474 538,471 C538,474 535,476 533,476 C530,476 528,474 528,471 C528,474 525,476 523,476 C520,476 518,474 518,471 C515,471 513,469 513,466 C513,463 515,461 518,461 C515,461 513,459 513,456 C513,453 515,451 518,451 C515,451 513,449 513,446 C513,443 515,441 518,441 C515,441 513,439 513,436 C513,433 515,431 518,431 C515,431 513,429 513,426 C513,423 515,421 518,421 C515,421 513,419 513,416 C513,413 515,411 518,411 C515,411 513,409 513,406 C513,403 515,401 518,401 C515,401 513,399 513,396 C513,393 515,391 518,391 C515,391 513,389 513,386 C513,383 515,381 518,381 C515,381 513,379 513,376 C513,373 515,371 518,371 C515,371 513,369 513,366 C513,363 515,361 518,361 C515,361 513,359 513,356 C513,353 515,351 518,351 C515,351 513,349 513,346 C513,343 515,341 518,341 C515,341 513,339 513,336 C513,333 515,331 518,331 C515,331 513,329 513,326 C513,323 515,321 518,321 C515,321 513,319 513,316 C513,313 515,311 518,311 C515,311 513,309 513,306 C513,303 515,301 518,301 C515,301 513,299 513,296 C513,293 515,291 518,291 C515,291 513,289 513,286 C513,283 515,281 518,281 C515,281 513,279 513,276 C513,273 515,271 518,271 C515,271 513,269 513,266 C513,263 515,261 518,261 C515,261 513,259 513,256 C513,253 515,251 518,251 C515,251 513,249 513,246 C513,243 515,241 518,241 C515,241 513,239 513,236 C513,233 515,231 518,231 C515,231 513,229 513,226 C513,223 515,221 518,221 C515,221 513,219 513,216 C513,213 515,211 518,211 C515,211 513,209 513,206 C513,203 515,201 518,201 C515,201 513,199 513,196 C513,193 515,191 518,191 C515,191 513,189 513,186 C513,183 515,181 518,181 C515,181 513,179 513,176 C513,173 515,171 518,171 C515,171 513,169 513,166 C513,163 515,161 518,161 C515,161 513,159 513,156 C513,153 515,151 518,151 C515,151 513,149 513,146 C513,143 515,141 518,141 C515,141 513,139 513,136 C513,133 515,131 518,131 C515,131 513,129 513,126 C513,123 515,121 518,121 C515,121 513,119 513,116 C513,113 515,111 518,111 C515,111 513,109 513,106 C513,103 515,101 518,101 C515,101 513,99 513,96 C513,93 515,91 518,91 C515,91 513,89 513,86 C513,83 515,81 518,81 C515,81 513,79 513,76 C513,73 515,71 518,71 C515,71 513,69 513,66 C513,63 515,61 518,61 C515,61 513,59 513,56 C513,53 515,51 518,51 C515,51 513,49 513,46 C513,43 515,41 518,41 C515,41 513,39 513,36 C513,33 515,31 518,31 " fill="#FFFFFF" filter="url(#fbphr1af3p629)" style="stroke: #000000; stroke-width: 1.5;"/><text fill="#000000" font-family="Ubuntu Mono" font-size="24" font-weight="bold" lengthAdjust="spacingAndGlyphs" textLength="216" x="716.5" y="56.9199">Phases d'écriture,</text><text fill="#000000" font-family="Ubuntu Mono" font-size="24" font-weight="bold" lengthAdjust="spacingAndGlyphs" textLength="156" x="746.5" y="80.9199">de relecture,</text><text fill="#000000" font-family="Ubuntu Mono" font-size="24" font-weight="bold" lengthAdjust="spacingAndGlyphs" textLength="180" x="734.5" y="104.9198">de mise en page</text><!--cluster content--><polygon fill="#FFFFFF" filter="url(#fbphr1af3p629)" points="547,140,557,130,1102,130,1102,434,1092,444,547,444,547,140" style="stroke: #000000; stroke-width: 1.5;"/><line style="stroke: #000000; stroke-width: 1.5;" x1="1092" x2="1101" y1="140" y2="131"/><line style="stroke: #000000; stroke-width: 1.5;" x1="547" x2="1092" y1="140" y2="140"/><line style="stroke: #000000; stroke-width: 1.5;" x1="1092" x2="1092" y1="140" y2="444"/><text fill="#000000" font-family="Ubuntu Mono" font-size="24" font-weight="bold" lengthAdjust="spacingAndGlyphs" textLength="96" x="772.5" y="162.9199">Contenus</text><!--entity texte--><polygon fill="#F8F8F8" filter="url(#fbphr1af3p629)" points="590,195,600,185,834,185,834,252.9999,824,262.9999,590,262.9999,590,195" style="stroke: #000000; stroke-width: 1.5;"/><line style="stroke: #000000; stroke-width: 1.5;" x1="824" x2="833" y1="195" y2="186"/><line style="stroke: #000000; stroke-width: 1.5;" x1="590" x2="824" y1="195" y2="195"/><line style="stroke: #000000; stroke-width: 1.5;" x1="824" x2="824" y1="195" y2="262.9999"/><text fill="#000000" font-family="Ubuntu Mono" font-size="24" lengthAdjust="spacingAndGlyphs" textLength="72" x="605" y="224.9199">Textes</text><text fill="#000000" font-family="Ubuntu Mono" font-size="24" lengthAdjust="spacingAndGlyphs" textLength="204" x="605" y="248.9199">(format Markdown)</text><!--entity media--><polygon fill="#F8F8F8" filter="url(#fbphr1af3p629)" points="869,195,879,185,1077,185,1077,252.9999,1067,262.9999,869,262.9999,869,195" style="stroke: #000000; stroke-width: 1.5;"/><line style="stroke: #000000; stroke-width: 1.5;" x1="1067" x2="1076" y1="195" y2="186"/><line style="stroke: #000000; stroke-width: 1.5;" x1="869" x2="1067" y1="195" y2="195"/><line style="stroke: #000000; stroke-width: 1.5;" x1="1067" x2="1067" y1="195" y2="262.9999"/><text fill="#000000" font-family="Ubuntu Mono" font-size="24" lengthAdjust="spacingAndGlyphs" textLength="72" x="884" y="224.9199">Médias</text><text fill="#000000" font-family="Ubuntu Mono" font-size="24" lengthAdjust="spacingAndGlyphs" textLength="168" x="884" y="248.9199">(images, etc.)</text><!--entity data--><polygon fill="#F8F8F8" filter="url(#fbphr1af3p629)" points="579,352,589,342,775,342,775,409.9999,765,419.9999,579,419.9999,579,352" style="stroke: #000000; stroke-width: 1.5;"/><line style="stroke: #000000; stroke-width: 1.5;" x1="765" x2="774" y1="352" y2="343"/><line style="stroke: #000000; stroke-width: 1.5;" x1="579" x2="765" y1="352" y2="352"/><line style="stroke: #000000; stroke-width: 1.5;" x1="765" x2="765" y1="352" y2="419.9999"/><text fill="#000000" font-family="Ubuntu Mono" font-size="24" lengthAdjust="spacingAndGlyphs" textLength="84" x="594" y="381.9199">Données</text><text fill="#000000" font-family="Ubuntu Mono" font-size="24" lengthAdjust="spacingAndGlyphs" textLength="156" x="594" y="405.9199">(format JSON)</text><!--entity styles--><polygon fill="#F8F8F8" filter="url(#fbphr1af3p629)" points="810,352,820,342,1078,342,1078,409.9999,1068,419.9999,810,419.9999,810,352" style="stroke: #000000; stroke-width: 1.5;"/><line style="stroke: #000000; stroke-width: 1.5;" x1="1068" x2="1077" y1="352" y2="343"/><line style="stroke: #000000; stroke-width: 1.5;" x1="810" x2="1068" y1="352" y2="352"/><line style="stroke: #000000; stroke-width: 1.5;" x1="1068" x2="1068" y1="352" y2="419.9999"/><text fill="#000000" font-family="Ubuntu Mono" font-size="24" lengthAdjust="spacingAndGlyphs" textLength="84" x="825" y="381.9199">Modèles</text><text fill="#000000" font-family="Ubuntu Mono" font-size="24" lengthAdjust="spacingAndGlyphs" textLength="228" x="825" y="405.9199">(feuilles de style)</text><!--entity html--><path d="M257,342 C257,339 259,337 262,337 C265,337 267,339 267,342 C267,339 269,337 272,337 C275,337 277,339 277,342 C277,339 279,337 282,337 C285,337 287,339 287,342 C287,339 289,337 292,337 C295,337 297,339 297,342 C297,339 299,337 302,337 C305,337 307,339 307,342 C307,339 309,337 312,337 C315,337 317,339 317,342 C320,342 322,344 322,347 C322,350 320,352 317,352 C320,352 322,354 322,357 C322,360 320,362 317,362 C320,362 322,364 322,367 C322,370 320,372 317,372 C320,372 322,374 322,377 C322,380 320,382 317,382 C320,382 322,384 322,387 C322,390 320,392 317,392 C320,392 322,394 322,397 C322,400 320,402 317,402 C320,402 322,404 322,407 C322,410 320,412 317,412 C320,412 322,414 322,417 C322,420 320,422 317,422 C317,425 314,427 312,427 C309,427 307,425 307,422 C307,425 304,427 302,427 C299,427 297,425 297,422 C297,425 294,427 292,427 C289,427 287,425 287,422 C287,425 284,427 282,427 C279,427 277,425 277,422 C277,425 274,427 272,427 C269,427 267,425 267,422 C267,425 264,427 262,427 C259,427 257,425 257,422 C254,422 252,420 252,417 C252,414 254,412 257,412 C254,412 252,410 252,407 C252,404 254,402 257,402 C254,402 252,400 252,397 C252,394 254,392 257,392 C254,392 252,390 252,387 C252,384 254,382 257,382 C254,382 252,380 252,377 C252,374 254,372 257,372 C254,372 252,370 252,367 C252,364 254,362 257,362 C254,362 252,360 252,357 C252,354 254,352 257,352 C254,352 252,350 252,347 C252,344 254,342 257,342 " fill="#FFFFFF" filter="url(#fbphr1af3p629)" style="stroke: #000000; stroke-width: 1.5;"/><text fill="#000000" font-family="Ubuntu Mono" font-size="24" font-weight="bold" lengthAdjust="spacingAndGlyphs" textLength="48" x="264" y="364.9199">HTML</text><text fill="#000000" font-family="Ubuntu Mono" font-size="24" font-weight="bold" lengthAdjust="spacingAndGlyphs" textLength="36" x="264" y="388.9199">CSS</text><text fill="#000000" font-family="Ubuntu Mono" font-size="24" font-weight="bold" lengthAdjust="spacingAndGlyphs" textLength="24" x="264" y="412.9198">JS</text><!--entity gss--><polygon fill="#F8F8F8" filter="url(#fbphr1af3p629)" points="219,183,229,173,451,173,451,264.9998,441,274.9998,219,274.9998,219,183" style="stroke: #000000; stroke-width: 1.5;"/><line style="stroke: #000000; stroke-width: 1.5;" x1="441" x2="450" y1="183" y2="174"/><line style="stroke: #000000; stroke-width: 1.5;" x1="219" x2="441" y1="183" y2="183"/><line style="stroke: #000000; stroke-width: 1.5;" x1="441" x2="441" y1="183" y2="274.9998"/><text fill="#000000" font-family="Ubuntu Mono" font-size="24" font-weight="bold" lengthAdjust="spacingAndGlyphs" textLength="120" x="234" y="212.9199">Processeur</text><text fill="#000000" font-family="Ubuntu Mono" font-size="24" lengthAdjust="spacingAndGlyphs" textLength="120" x="234" y="236.9199">générateur</text><text fill="#000000" font-family="Ubuntu Mono" font-size="24" lengthAdjust="spacingAndGlyphs" textLength="192" x="234" y="260.9198">de site statique</text><!--entity prince--><polygon fill="#F8F8F8" filter="url(#fbphr1af3p629)" points="9,352,19,342,217,342,217,409.9999,207,419.9999,9,419.9999,9,352" style="stroke: #000000; stroke-width: 1.5;"/><line style="stroke: #000000; stroke-width: 1.5;" x1="207" x2="216" y1="352" y2="343"/><line style="stroke: #000000; stroke-width: 1.5;" x1="9" x2="207" y1="352" y2="352"/><line style="stroke: #000000; stroke-width: 1.5;" x1="207" x2="207" y1="352" y2="419.9999"/><text fill="#000000" font-family="Ubuntu Mono" font-size="24" lengthAdjust="spacingAndGlyphs" textLength="168" x="24" y="381.9199">Générateur PDF</text><text fill="#000000" font-family="Ubuntu Mono" font-size="24" lengthAdjust="spacingAndGlyphs" textLength="144" x="24" y="405.9199">(Prince XML)</text><ellipse cx="112.2278" cy="515.6456" fill="#F8F8F8" filter="url(#fbphr1af3p629)" rx="106.2278" ry="23.6456" style="stroke: #383838; stroke-width: 1.5;"/><text fill="#000000" font-family="Ubuntu Mono" font-size="24" lengthAdjust="spacingAndGlyphs" textLength="168" x="28.2278" y="524.1455">PDF imprimable</text><ellipse cx="427.8823" cy="380.9705" fill="#F8F8F8" filter="url(#fbphr1af3p629)" rx="70.8823" ry="19.9705" style="stroke: #383838; stroke-width: 1.5;"/><text fill="#000000" font-family="Ubuntu Mono" font-size="24" lengthAdjust="spacingAndGlyphs" textLength="96" x="379.8823" y="389.4705">Site web</text><ellipse cx="289.9411" cy="515.4705" fill="#F8F8F8" filter="url(#fbphr1af3p629)" rx="36.9411" ry="19.9705" style="stroke: #383838; stroke-width: 1.5;"/><text fill="#000000" font-family="Ubuntu Mono" font-size="24" lengthAdjust="spacingAndGlyphs" textLength="48" x="265.9411" y="523.9705">EPUB</text><!--link texte to media--><path d="M834.089,224 C845.665,224 857.241,224 868.817,224 " fill="none" id="texte-media" style="stroke: #383838; stroke-width: 1.0;"/><!--link texte to data--><path d="M703.348,263.315 C697.943,287.251 691.01,317.954 685.613,341.858 " fill="none" id="texte-data" style="stroke: #383838; stroke-width: 1.0;"/><!--link media to styles--><path d="M965.831,263.315 C961.353,287.251 955.609,317.954 951.136,341.858 " fill="none" id="media-styles" style="stroke: #383838; stroke-width: 1.0;"/><!--link data to styles--><path d="M775.039,381 C786.589,381 798.139,381 809.689,381 " fill="none" id="data-styles" style="stroke: #383838; stroke-width: 1.0;"/><!--link content to gss--><path d="M546.9128,224 C546.4008,224 545.8887,224 545.3766,224 C544.3524,224 543.3283,224 542.3041,224 C538.2075,224 534.1109,224 530.0143,224 C521.821,224 513.6278,224 505.4345,224 C489.048,224 472.6615,224 456.275,224 " fill="none" id="content-gss" style="stroke: #383838; stroke-width: 1.0;"/><polygon fill="#383838" points="451.016,224,460.016,228,456.016,224,460.016,220,451.016,224" style="stroke: #383838; stroke-width: 1.0;"/><!--link gss to html--><path d="M319.74,275.324 C314.424,292.858 308.463,312.516 303.155,330.022 " fill="none" id="gss-html" style="stroke: #383838; stroke-width: 1.0;"/><polygon fill="#383838" points="301.676,334.898,308.1139,327.4445,303.1258,330.1128,300.4576,325.1248,301.676,334.898" style="stroke: #383838; stroke-width: 1.0;"/><!--link prince to html--><path d="M222.378,381 C232.829,381 243.279,381 253.73,381 " fill="none" id="prince-html" style="stroke: #383838; stroke-width: 1.0;"/><polygon fill="#383838" points="217.248,381,226.248,385,222.248,381,226.248,377,217.248,381" style="stroke: #383838; stroke-width: 1.0;"/><!--link prince to PDF imprimable--><path d="M112.711,420.324 C112.552,441.4228 112.357,467.1463 112.212,486.3745 " fill="none" id="prince-PDF imprimable" style="stroke: #383838; stroke-width: 1.0;"/><polygon fill="#383838" points="112.173,491.6164,116.2408,482.6468,112.2107,486.6165,108.241,482.5865,112.173,491.6164" style="stroke: #383838; stroke-width: 1.0;"/><!--link html to Site web--><path d="M322.18,381 C332.036,381 341.892,381 351.748,381 " fill="none" id="html-Site web" style="stroke: #383838; stroke-width: 1.0;"/><polygon fill="#383838" points="356.902,381,347.902,377,351.902,381,347.902,385,356.902,381" style="stroke: #383838; stroke-width: 1.0;"/><!--link html to EPUB--><path d="M288.683,427.228 C289.001,448.2901 289.366,472.514 289.632,490.0887 " fill="none" id="html-EPUB" style="stroke: #383838; stroke-width: 1.0;"/><polygon fill="#383838" points="289.71,495.3185,293.5738,486.2592,289.6346,490.3191,285.5747,486.3799,289.71,495.3185" style="stroke: #383838; stroke-width: 1.0;"/><!--
@startuml
skinparam monochrome true
skinparam defaultFontSize 24
skinparam defaultFontName Ubuntu Mono
top to bottom direction

cloud "Phases d'écriture,\nde relecture,\nde mise en page" {

node Contenus as content {
  node "Textes\n(format Markdown)" as texte
  node "Médias\n(images, etc.)" as media
  node "Données\n(format JSON)" as data
  node "Modèles\n(feuilles de style)" as styles
}

}

texte -right- media
texte -down- data
media -down- styles
data -right- styles

node "**Processeur**\ngénérateur\nde site statique" as gss
node "Générateur PDF\n(Prince XML)" as prince

cloud "**HTML**\n**CSS**\n**JS**" as html {

}

content -right- - -> gss
gss -down-> html
html -left-> prince
prince -down-> (PDF imprimable)
html -> (Site web)
html - -> (EPUB)
@enduml

PlantUML version 1.2018.01(Sun Jan 28 19:08:22 CET 2018)
(APACHE source distribution)
Java Runtime: OpenJDK Runtime Environment
JVM: OpenJDK 64-Bit Server VM
Java Version: 1.8.0_151-8u151-b12-0ubuntu0.16.04.2-b12
Operating System: Linux
OS Version: 4.4.0-116-generic
Default Encoding: UTF-8
Language: fr
Country: FR
--></g></svg>